<svg width="185" height="28" viewBox="0 0 185 28" fill="none" xmlns="http://www.w3.org/2000/svg">
<path d="M20.6 0.900391H16.2L0 26.8004H4.30002L8.10001 20.8004H28.8L32.6 26.8004H36.9L20.6 0.900391ZM10 17.8004L18.4 4.40039L26.8 17.8004H10Z" fill="black"/>
<path d="M68.6996 12.2003C70.3996 11.1003 71.4996 9.5003 71.4996 7.4003C71.4996 2.7003 67.8996 0.800293 61.6996 0.800293H40.0996V26.7003H63.5996C69.6996 26.7003 73.3996 23.3003 73.3996 18.9003C73.2996 16.1003 71.6996 13.6003 68.6996 12.2003ZM43.7996 4.00031H61.1996C65.5996 4.00031 67.6996 4.70031 67.6996 7.60031C67.6996 10.5003 65.5996 11.2003 61.1996 11.2003H43.7996V4.00031ZM63.0996 23.8003H43.7996V14.3003H62.2996C66.6996 14.3003 69.4996 15.9003 69.4996 19.0003C69.5996 22.2003 66.6996 23.8003 63.0996 23.8003Z" fill="black"/>
<path d="M93.6998 0.200195C81.4998 0.200195 75.7998 6.40018 75.7998 14.0002C75.7998 21.6002 81.5998 27.8002 93.6998 27.8002C105.9 27.8002 111.7 21.6002 111.7 14.0002C111.7 6.40018 105.9 0.200195 93.6998 0.200195ZM93.5998 24.8002C83.8998 24.8002 79.4998 19.9002 79.4998 14.1002C79.4998 8.20019 83.9998 3.30017 93.5998 3.30017C103.4 3.30017 107.9 8.10019 107.9 14.1002C107.9 19.9002 103.4 24.8002 93.5998 24.8002Z" fill="black"/>
<path d="M115.7 17.2004V0.900391H119.5V16.3004C119.5 22.3004 124 24.7004 131.3 24.7004C138.5 24.7004 143.1 22.3004 143.1 16.3004V0.900391H146.9V17.2004C146.9 25.8004 139.5 27.6004 131.4 27.8004C123.1 27.7004 115.7 25.8004 115.7 17.2004Z" fill="black"/>
<path d="M150.8 0.900391H184.1V4.0004H169.4V26.9004H165.6V4.0004H150.8V0.900391Z" fill="black"/>
</svg>
