<svg width="320" height="29" viewBox="0 0 320 29" fill="none" xmlns="http://www.w3.org/2000/svg">
<path d="M20.9 0.800293H16.5L0 27.2003H4.39999L8.29999 21.1003H29.3L33.2 27.2003H37.6L20.9 0.800293ZM10.2 18.0003L18.7 4.4003L27.2 18.0003H10.2Z" fill="black"/>
<path d="M70.3998 17.6003C72.8998 15.8003 73.9998 13.1003 73.9998 10.1003C73.9998 5.00031 70.8998 0.800293 63.3998 0.800293H40.7998V27.2003H44.5998V19.5003H63.4998C66.1998 19.5003 70.1998 19.5003 70.1998 23.3003V27.1003H73.9998V22.5003C73.8998 20.1003 72.6998 18.6003 70.3998 17.6003ZM62.1998 16.4003H44.4998V4.00031H62.1998C67.9998 4.00031 70.0998 6.50032 70.0998 10.2003C70.0998 13.9003 67.9998 16.4003 62.1998 16.4003Z" fill="black"/>
<path d="M78.5996 0.800293H112.5V4.00031H97.4996V27.2003H93.6996V4.00031H78.5996V0.800293Z" fill="black"/>
<path d="M141.5 5.50031L131.5 27.2003H127.2L115 0.800293H119.2L129.4 22.6003L139.4 0.800293H143.6L153.6 22.6003L163.8 0.800293H168L155.8 27.2003H151.5L141.5 5.50031Z" fill="black"/>
<path d="M186.8 0.100098C174.4 0.100098 168.6 6.4001 168.6 14.2001C168.6 21.9001 174.5 28.2001 186.8 28.2001C199.2 28.2001 205.1 21.9001 205.1 14.2001C205.1 6.4001 199.3 0.100098 186.8 0.100098ZM186.8 25.0001C177 25.0001 172.5 20.1001 172.5 14.1001C172.5 8.1001 177 3.2001 186.8 3.2001C196.8 3.2001 201.4 8.1001 201.4 14.1001C201.3 20.1001 196.7 25.0001 186.8 25.0001Z" fill="black"/>
<path d="M239.5 17.6003C242 15.8003 243.1 13.1003 243.1 10.1003C243.1 5.00031 239.9 0.800293 232.5 0.800293H209.9V27.2003H213.7V19.5003H232.6C235.3 19.5003 239.3 19.5003 239.3 23.3003V27.1003H243.1V22.5003C243.1 20.1003 241.9 18.6003 239.5 17.6003ZM231.4 16.4003H213.7V4.00031H231.4C237.2 4.00031 239.3 6.50032 239.3 10.2003C239.3 13.9003 237.2 16.4003 231.4 16.4003Z" fill="black"/>
<path d="M249.3 0.800293H253.1V13.6003L276.1 0.800293H282L261.9 12.4003L282 27.2003H276.9L259 14.0003L253.1 17.4003V27.2003H249.3V0.800293Z" fill="black"/>
<path d="M284 18.4002H287.8C287.8 21.9002 292.7 25.1002 301.8 25.1002C311.8 25.1002 315.6 23.5002 315.6 19.8002C315.6 16.7002 309.7 16.0002 301.8 15.4002C291.6 14.6002 284.3 13.2002 284.3 7.80017C284.3 2.50017 289.8 0.200195 301.3 0.200195C313 0.200195 318.6 3.3002 318.7 9.2002H314.9C314.5 4.7002 310 3.40018 301.7 3.40018C292.3 3.40018 288.1 4.90017 288.1 7.80017C288.1 10.9002 294.1 11.6002 303 12.4002C311.5 13.1002 319.4 14.0002 319.4 19.6002C319.4 26.4002 313.4 28.4002 301.8 28.4002C290 28.1002 284.1 24.1002 284 18.4002Z" fill="black"/>
</svg>
