<svg width="291" height="28" viewBox="0 0 291 28" fill="none" xmlns="http://www.w3.org/2000/svg">
<path d="M3.80002 13.9001C3.80002 19.8001 8.60002 24.6001 17.9 24.6001C26.3 24.6001 30.9 20.9001 31.9 16.5001H35.7C34.5 22.9001 28.6 27.7001 17.9 27.7001C6.20002 27.7001 0 21.5001 0 13.9001C0 6.30009 6.20002 0.100098 17.9 0.100098C28.6 0.100098 34.5 4.90008 35.7 11.3001H31.9C30.9 6.80008 26.4 3.2001 17.9 3.2001C8.70002 3.2001 3.80002 8.00009 3.80002 13.9001Z" fill="black"/>
<path d="M56.9004 0.100098C44.7004 0.100098 38.9004 6.30009 38.9004 13.9001C38.9004 21.5001 44.7004 27.7001 56.9004 27.7001C69.1004 27.7001 74.9004 21.5001 74.9004 13.9001C74.9004 6.30009 69.1004 0.100098 56.9004 0.100098ZM56.8004 24.6001C47.1004 24.6001 42.7004 19.7001 42.7004 13.9001C42.7004 8.00009 47.2004 3.1001 56.8004 3.1001C66.6004 3.1001 71.1004 7.90009 71.1004 13.9001C71.1004 19.8001 66.6004 24.6001 56.8004 24.6001Z" fill="black"/>
<path d="M109.1 22.1998L83.3 0.799805H79.5V26.7998H83.3V5.2998L109.1 26.7998H112.8V0.799805H109.1V22.1998Z" fill="black"/>
<path d="M150.8 0.799805H117.4V3.89981H132.3V26.7998H136V3.89981H150.8V0.799805Z" fill="black"/>
<path d="M166.3 0.799805H161.9L145.7 26.7998H150L153.8 20.7998H174.5L178.3 26.7998H182.6L166.3 0.799805ZM155.7 17.6998L164.1 4.2998L172.5 17.6998H155.7Z" fill="black"/>
<path d="M199.9 3.2001C208.3 3.2001 212.9 6.80008 213.9 11.3001H217.7C216.5 4.90008 210.6 0.100098 199.9 0.100098C188.2 0.100098 182 6.30009 182 13.9001C182 21.5001 188.2 27.7001 199.9 27.7001C210.6 27.7001 216.5 22.9001 217.7 16.5001H213.9C212.9 20.9001 208.4 24.6001 199.9 24.6001C190.7 24.6001 185.8 19.7001 185.8 13.9001C185.8 8.00009 190.7 3.2001 199.9 3.2001Z" fill="black"/>
<path d="M218.8 3.89981H233.6V26.7998H237.4V3.89981H252.1V0.799805H218.8V3.89981Z" fill="black"/>
<path d="M274.1 12C265.4 11.2 259.5 10.5 259.5 7.5C259.5 4.6 263.6 3.10001 272.8 3.10001C281 3.10001 285.4 4.39999 285.8 8.79999H289.6C289.5 2.99999 284 0 272.5 0C261.2 0 255.7 2.3 255.7 7.5C255.7 12.9 262.9 14.2 273 15C280.8 15.6 286.5 16.3 286.5 19.4C286.5 23.1 282.8 24.6 272.9 24.6C263.9 24.6 259.1 21.5 259.1 18H255.3C255.4 23.7 261.2 27.6 272.9 27.6C284.4 27.6 290.2 25.6 290.2 19C290.3 13.6 282.4 12.7 274.1 12Z" fill="black"/>
</svg>
