<svg width="158" height="54" viewBox="0 0 158 54" fill="none" xmlns="http://www.w3.org/2000/svg">
<path d="M142.758 53L133.214 33.4351H138.857L145.593 47.1894L152.302 33.4351H157.972L148.429 53H142.758Z" fill="black"/>
<path d="M119.309 53.7016C109.877 53.7016 105.583 49.042 105.583 43.3156C105.583 37.5613 109.877 32.8735 119.309 32.8735C128.769 32.8735 133.091 37.5613 133.091 43.3156C133.091 49.042 128.769 53.7016 119.309 53.7016ZM110.635 43.3156C110.635 46.7683 113.274 49.6034 119.281 49.6034C125.344 49.6034 128.039 46.7683 128.039 43.3156C128.039 39.8069 125.344 36.9718 119.281 36.9718C113.274 36.9718 110.635 39.8069 110.635 43.3156Z" fill="black"/>
<path d="M93.064 43.2877C97.0781 43.2877 97.9482 42.3052 97.9482 40.4245C97.9482 38.5438 97.0781 37.5333 93.064 37.5333H82.9307V43.2877H93.064ZM77.8781 53V33.4351H94.243C100.783 33.4351 103.001 36.607 103.001 40.3403C103.001 42.1368 102.496 43.8491 101.232 45.1123C102.411 45.9544 103.001 47.0491 103.001 48.228V53H97.9482V49.4631C97.9482 47.414 95.6465 47.3859 94.7202 47.3859H94.243H82.9307V53H77.8781Z" fill="black"/>
<path d="M49.7388 37.5333V33.4351H75.2827V37.5333H65.0651V53H60.0125V37.5333H49.7388Z" fill="black"/>
<path d="M27.3468 53V33.4351H47.8942V37.5333H32.3994V40.8737H47.8942V44.9719H32.3994V48.9017H47.8942V53H27.3468Z" fill="black"/>
<path d="M14.8316 43.2877C17.6105 43.2877 19.7158 42.3052 19.7158 40.4245C19.7158 38.5438 17.6105 37.5333 14.8316 37.5333H5.68068V43.2877H14.8316ZM0.628052 53V33.4351H16.0105C22.4105 33.4351 24.7684 36.607 24.7684 40.3403C24.7684 44.0737 22.4105 47.3859 16.0105 47.3859H5.68068V53H0.628052Z" fill="black"/>
<path d="M124.216 26L122.307 22.8H108.778L106.869 26H101.058L112.623 6.43506H118.462L130.055 26H124.216ZM111.192 18.7017H119.893L115.542 11.3754L111.192 18.7017Z" fill="black"/>
<path d="M94.3101 26V17.9719H80.5557V26H75.5031V6.43506H80.5557V13.9017H94.3101V6.43506H99.3627V26H94.3101Z" fill="black"/>
<path d="M58.8989 26.7016C50.562 26.7016 45.7901 24.5402 45.5656 19.5999H50.6182C50.6182 21.3683 53.9024 22.6034 58.8989 22.6034C65.1024 22.6034 67.1796 21.9577 67.1796 20.442C67.1796 18.8981 64.6813 18.5332 59.2357 18.1963C50.1129 17.6349 45.8743 16.0911 45.8743 11.8806C45.8743 7.89459 50.4498 5.87354 58.1971 5.87354C66.4778 5.87354 71.1936 8.2595 71.362 12.6665H66.3094C66.2252 10.6174 62.8568 9.97178 58.7585 9.97178C53.5375 9.97178 50.927 10.6455 50.927 11.8806C50.927 13.256 53.8182 13.677 59.4603 14.0981C67.1515 14.6034 72.2322 15.3332 72.2322 20.1613C72.2322 25.5507 67.0392 26.7016 58.8989 26.7016Z" fill="black"/>
<path d="M22.4718 26V6.43506H43.0192V10.5333H27.5244V13.8737H43.0192V17.9719H27.5244V21.9017H43.0192V26H22.4718Z" fill="black"/>
<path d="M0.628052 26V6.43506H5.68068V21.9017H20.2491V26H0.628052Z" fill="black"/>
<rect x="31" width="4" height="4" fill="black"/>
</svg>
