<svg width="18" height="13" viewBox="0 0 18 13" fill="none" xmlns="http://www.w3.org/2000/svg">
<path d="M16.043 12.7547H1.48519C0.661717 12.7547 0 12.0925 0 11.2685V1.83672C0 1.01273 0.661717 0.350586 1.48519 0.350586H16.043C16.8664 0.350586 17.5282 1.01273 17.5282 1.83672V11.2833C17.5282 12.0925 16.8664 12.7547 16.043 12.7547ZM1.49989 11.2538H16.0283V1.83672H1.49989V11.2538Z" fill="black"/>
<path d="M16.043 12.7547H1.48519C0.661717 12.7547 0 12.0925 0 11.2685V1.83672C0 1.01273 0.661717 0.350586 1.48519 0.350586H16.043C16.8664 0.350586 17.5282 1.01273 17.5282 1.83672V11.2833C17.5282 12.0925 16.8664 12.7547 16.043 12.7547ZM1.49989 11.2538H16.0283V1.83672H1.49989V11.2538Z" stroke="black"/>
<path d="M6.83779 10.268C6.58781 10.268 6.32312 10.1945 6.08784 10.0621C5.61729 9.79719 5.3526 9.31163 5.3526 8.78191V4.32351C5.3526 3.77908 5.63199 3.30822 6.08784 3.04337C6.5584 2.77851 7.10247 2.77851 7.57303 3.04337L11.411 5.26522C11.8815 5.53007 12.1462 6.01564 12.1462 6.54535C12.1462 7.07506 11.8668 7.56063 11.411 7.82549L7.58773 10.0621C7.35246 10.1945 7.10247 10.268 6.83779 10.268ZM6.85249 8.73777L10.6463 6.54535L6.85249 4.35293V8.73777Z" fill="black"/>
<path d="M6.83779 10.268C6.58781 10.268 6.32312 10.1945 6.08784 10.0621C5.61729 9.79719 5.3526 9.31163 5.3526 8.78191V4.32351C5.3526 3.77908 5.63199 3.30822 6.08784 3.04337C6.5584 2.77851 7.10247 2.77851 7.57303 3.04337L11.411 5.26522C11.8815 5.53007 12.1462 6.01564 12.1462 6.54535C12.1462 7.07506 11.8668 7.56063 11.411 7.82549L7.58773 10.0621C7.35246 10.1945 7.10247 10.268 6.83779 10.268ZM6.85249 8.73777L10.6463 6.54535L6.85249 4.35293V8.73777Z" stroke="black"/>
</svg>
