<svg width="18" height="19" viewBox="0 0 18 19" fill="none" xmlns="http://www.w3.org/2000/svg">
<path d="M4.02912 0.805176H13.4696C13.5284 0.812533 13.5909 0.823569 13.6534 0.834605C13.7159 0.845641 13.7784 0.856677 13.8372 0.864034C15.4401 1.17303 16.5723 2.08531 17.1899 3.58617C17.313 3.8883 17.3764 4.21596 17.4386 4.5368C17.4582 4.63784 17.4776 4.7382 17.4987 4.83687V14.2834C17.4708 14.4065 17.4492 14.5317 17.4276 14.6574C17.3922 14.8623 17.3567 15.0686 17.2929 15.2693C16.69 17.1085 15.043 18.3151 13.102 18.3298C11.1702 18.3396 9.23191 18.3364 7.29577 18.3331C6.32852 18.3314 5.36182 18.3298 4.39674 18.3298C3.47034 18.3298 2.60275 18.065 1.85281 17.5205C0.602898 16.6083 0 15.3723 0 13.8273V5.35187C0 5.05759 0.0147048 4.7633 0.0588193 4.48373C0.352916 2.86517 1.26462 1.73217 2.79392 1.11418C3.08641 0.990348 3.41333 0.926805 3.73518 0.86425C3.83402 0.845038 3.93238 0.825919 4.02912 0.805176ZM8.76408 2.2766C7.33771 2.26188 5.91134 2.26188 4.48497 2.2766C4.13206 2.2766 3.76444 2.32074 3.42623 2.43846C2.27925 2.80631 1.44107 3.92459 1.44107 5.2783C1.45087 7.1906 1.44761 9.09637 1.44434 11.0043C1.44271 11.9591 1.44107 12.9144 1.44107 13.8714C1.44107 14.1068 1.45578 14.3423 1.49989 14.563C1.80869 15.9608 2.95567 16.8731 4.39674 16.8731H13.0432C13.4843 16.8731 13.9108 16.7995 14.3078 16.6083C15.4401 16.0491 16.0136 15.1221 16.0136 13.8567V5.2783C16.0136 5.08702 15.9989 4.89573 15.9694 4.70444C15.8077 3.42431 14.5872 2.30603 13.2932 2.2766C12.3036 2.25699 11.2944 2.26351 10.283 2.27005C9.77654 2.27332 9.26949 2.2766 8.76408 2.2766Z" fill="black"/>
<path d="M4.02912 0.805176H13.4696C13.5284 0.812533 13.5909 0.823569 13.6534 0.834605C13.7159 0.845641 13.7784 0.856677 13.8372 0.864034C15.4401 1.17303 16.5723 2.08531 17.1899 3.58617C17.313 3.8883 17.3764 4.21596 17.4386 4.5368C17.4582 4.63784 17.4776 4.7382 17.4987 4.83687V14.2834C17.4708 14.4065 17.4492 14.5317 17.4276 14.6574C17.3922 14.8623 17.3567 15.0686 17.2929 15.2693C16.69 17.1085 15.043 18.3151 13.102 18.3298C11.1702 18.3396 9.23191 18.3364 7.29577 18.3331C6.32852 18.3314 5.36182 18.3298 4.39674 18.3298C3.47034 18.3298 2.60275 18.065 1.85281 17.5205C0.602898 16.6083 0 15.3723 0 13.8273V5.35187C0 5.05759 0.0147048 4.7633 0.0588193 4.48373C0.352916 2.86517 1.26462 1.73217 2.79392 1.11418C3.08641 0.990348 3.41333 0.926805 3.73518 0.86425C3.83402 0.845038 3.93238 0.825919 4.02912 0.805176ZM8.76408 2.2766C7.33771 2.26188 5.91134 2.26188 4.48497 2.2766C4.13206 2.2766 3.76444 2.32074 3.42623 2.43846C2.27925 2.80631 1.44107 3.92459 1.44107 5.2783C1.45087 7.1906 1.44761 9.09637 1.44434 11.0043C1.44271 11.9591 1.44107 12.9144 1.44107 13.8714C1.44107 14.1068 1.45578 14.3423 1.49989 14.563C1.80869 15.9608 2.95567 16.8731 4.39674 16.8731H13.0432C13.4843 16.8731 13.9108 16.7995 14.3078 16.6083C15.4401 16.0491 16.0136 15.1221 16.0136 13.8567V5.2783C16.0136 5.08702 15.9989 4.89573 15.9694 4.70444C15.8077 3.42431 14.5872 2.30603 13.2932 2.2766C12.3036 2.25699 11.2944 2.26351 10.283 2.27005C9.77654 2.27332 9.26949 2.2766 8.76408 2.2766Z" stroke="black"/>
<path d="M8.74941 13.9449C6.33782 13.9449 4.36737 11.9732 4.36737 9.56006C4.36737 7.14693 6.33782 5.18994 8.7347 5.18994C11.1463 5.18994 13.1167 7.16165 13.1167 9.57478C13.1167 11.9732 11.161 13.9449 8.74941 13.9449ZM8.74941 12.4735C10.3669 12.4735 11.661 11.1786 11.661 9.56006C11.661 7.95621 10.3669 6.64665 8.76411 6.63194C7.14658 6.61722 5.83785 7.92679 5.83785 9.54535C5.83785 11.1786 7.13188 12.4735 8.74941 12.4735Z" fill="black"/>
<path d="M8.74941 13.9449C6.33782 13.9449 4.36737 11.9732 4.36737 9.56006C4.36737 7.14693 6.33782 5.18994 8.7347 5.18994C11.1463 5.18994 13.1167 7.16165 13.1167 9.57478C13.1167 11.9732 11.161 13.9449 8.74941 13.9449ZM8.74941 12.4735C10.3669 12.4735 11.661 11.1786 11.661 9.56006C11.661 7.95621 10.3669 6.64665 8.76411 6.63194C7.14658 6.61722 5.83785 7.92679 5.83785 9.54535C5.83785 11.1786 7.13188 12.4735 8.74941 12.4735Z" stroke="black"/>
<path d="M13.4843 5.91117C12.8814 5.91117 12.3961 5.4256 12.3961 4.82232C12.3961 4.21903 12.8814 3.71875 13.4843 3.71875C14.0725 3.71875 14.5724 4.20432 14.5724 4.8076C14.5871 5.41089 14.0872 5.91117 13.4843 5.91117Z" fill="black"/>
<path d="M13.4843 5.91117C12.8814 5.91117 12.3961 5.4256 12.3961 4.82232C12.3961 4.21903 12.8814 3.71875 13.4843 3.71875C14.0725 3.71875 14.5724 4.20432 14.5724 4.8076C14.5871 5.41089 14.0872 5.91117 13.4843 5.91117Z" stroke="black"/>
</svg>
