<svg width="17" height="13" viewBox="0 0 17 13" fill="none" xmlns="http://www.w3.org/2000/svg">
<path d="M17 1.34164V11.6738C16.9933 11.6979 16.9866 11.7225 16.9798 11.7472C16.9434 11.8804 16.9054 12.0194 16.8573 12.1364C16.5718 12.7533 16.0865 13 15.4584 13H1.55584C1.47019 13 1.38455 13 1.28463 12.9846C0.670865 12.9383 0.11419 12.3832 0.0285474 11.7046C0.0271055 11.6922 0.0256636 11.6799 0.0242364 11.6677C0.0115355 11.5593 0 11.4608 0 11.3499V1.63464C0 1.24911 0.0713686 0.894425 0.299748 0.601424C0.628044 0.169632 1.04198 0 1.55584 0H15.4442C15.5441 0 15.6297 0 15.7296 0.0154211C16.1008 0.0616845 16.4005 0.231317 16.6432 0.524318C16.843 0.755635 16.9286 1.04864 17 1.34164ZM15.5869 2.66785C15.5798 2.66014 15.5726 2.65629 15.5655 2.65243C15.5584 2.64858 15.5512 2.64472 15.5441 2.63701C15.5227 2.66785 15.5013 2.69484 15.4798 2.72183C15.4584 2.74881 15.437 2.7758 15.4156 2.80664C13.4744 4.88849 11.5332 6.98576 9.60621 9.08304C9.42065 9.28351 9.22082 9.46856 8.9639 9.54567C8.3644 9.74615 7.86482 9.57651 7.43661 9.11388C6.78424 8.40907 6.13346 7.70426 5.48321 7.00003C4.18431 5.59329 2.88752 4.18883 1.58438 2.79122C1.54156 2.74496 1.49874 2.6987 1.42737 2.63701V11.4733H15.5726C15.5869 8.52788 15.5869 5.59787 15.5869 2.66785ZM14.5592 1.54211H2.4979L8.52141 8.04982C9.517 6.9742 10.5161 5.89858 11.5188 4.81915C12.5287 3.73197 13.5421 2.64092 14.5592 1.54211Z" fill="black"/>
<path d="M17 1.34164V11.6738C16.9933 11.6979 16.9866 11.7225 16.9798 11.7472C16.9434 11.8804 16.9054 12.0194 16.8573 12.1364C16.5718 12.7533 16.0865 13 15.4584 13H1.55584C1.47019 13 1.38455 13 1.28463 12.9846C0.670865 12.9383 0.11419 12.3832 0.0285474 11.7046C0.0271055 11.6922 0.0256636 11.6799 0.0242364 11.6677C0.0115355 11.5593 0 11.4608 0 11.3499V1.63464C0 1.24911 0.0713686 0.894425 0.299748 0.601424C0.628044 0.169632 1.04198 0 1.55584 0H15.4442C15.5441 0 15.6297 0 15.7296 0.0154211C16.1008 0.0616845 16.4005 0.231317 16.6432 0.524318C16.843 0.755635 16.9286 1.04864 17 1.34164ZM15.5869 2.66785C15.5798 2.66014 15.5726 2.65629 15.5655 2.65243C15.5584 2.64858 15.5512 2.64472 15.5441 2.63701C15.5227 2.66785 15.5013 2.69484 15.4798 2.72183C15.4584 2.74881 15.437 2.7758 15.4156 2.80664C13.4744 4.88849 11.5332 6.98576 9.60621 9.08304C9.42065 9.28351 9.22082 9.46856 8.9639 9.54567C8.3644 9.74615 7.86482 9.57651 7.43661 9.11388C6.78424 8.40907 6.13346 7.70426 5.48321 7.00003C4.18431 5.59329 2.88752 4.18883 1.58438 2.79122C1.54156 2.74496 1.49874 2.6987 1.42737 2.63701V11.4733H15.5726C15.5869 8.52788 15.5869 5.59787 15.5869 2.66785ZM14.5592 1.54211H2.4979L8.52141 8.04982C9.517 6.9742 10.5161 5.89858 11.5188 4.81915C12.5287 3.73197 13.5421 2.64092 14.5592 1.54211Z" stroke="black"/>
</svg>
